<?xml version="1.0" standalone="no"?>
<!DOCTYPE svg PUBLIC "-//W3C//DTD SVG 20010904//EN"
 "http://www.w3.org/TR/2001/REC-SVG-20010904/DTD/svg10.dtd">
<svg version="1.0" xmlns="http://www.w3.org/2000/svg"
 width="244.000000pt" height="226.000000pt" viewBox="0 0 244.000000 226.000000"
 preserveAspectRatio="xMidYMid meet">

<g transform="translate(0.000000,226.000000) scale(0.100000,-0.100000)"
fill="#000000" stroke="none">
<path d="M2074 2059 l-192 -191 -68 52 c-85 66 -241 141 -354 172 -72 20 -109
23 -245 23 -136 0 -173 -3 -245 -23 -362 -99 -632 -375 -722 -739 -32 -132
-30 -332 6 -467 32 -123 97 -258 169 -351 l54 -70 -226 -227 -226 -228 75 0
75 0 189 189 189 189 71 -54 c88 -67 203 -124 321 -160 108 -32 318 -44 431
-25 461 78 803 460 831 927 13 227 -51 443 -192 638 l-57 79 229 229 228 228
-75 0 -75 0 -191 -191z m-701 -225 c89 -20 175 -59 257 -114 l62 -42 -443
-444 -444 -444 75 0 75 0 406 406 406 406 48 -72 c116 -174 151 -383 100 -585
-8 -33 -34 -98 -57 -145 -59 -118 -188 -248 -305 -309 -275 -140 -602 -99
-823 106 -111 103 -191 239 -221 378 -18 84 -16 246 4 325 69 268 283 476 552
535 84 19 223 18 308 -1z"/>
</g>
</svg>
